HIERARCHY
ROOT Hips
{
	OFFSET 0.00000 0.00000 0.00000
	CHANNELS 6 Xposition Yposition Zposition Zrotation Yrotation Xrotation 
	JOINT LHipJoint
	{
		OFFSET 0 0 0
		CHANNELS 3 Zrotation Yrotation Xrotation
		JOINT LeftUpLeg
		{
			OFFSET 1.41496 -1.84582 0.78394
			CHANNELS 3 Zrotation Yrotation Xrotation
			JOINT LeftLeg
			{
				OFFSET 2.58040 -7.08960 0.00000
				CHANNELS 3 Zrotation Yrotation Xrotation
				JOINT LeftFoot
				{
					OFFSET 2.64719 -7.27309 0.00000
					CHANNELS 3 Zrotation Yrotation Xrotation
					JOINT LeftToeBase
					{
						OFFSET 0.20718 -0.56921 2.20259
						CHANNELS 3 Zrotation Yrotation Xrotation
						End Site
						{
							OFFSET 0.00000 -0.00000 1.14243
						}
					}
				}
			}
		}
	}
	JOINT RHipJoint
	{
		OFFSET 0 0 0
		CHANNELS 3 Zrotation Yrotation Xrotation
		JOINT RightUpLeg
		{
			OFFSET -1.40551 -1.84582 0.78394
			CHANNELS 3 Zrotation Yrotation Xrotation
			JOINT RightLeg
			{
				OFFSET -2.56572 -7.04926 0.00000
				CHANNELS 3 Zrotation Yrotation Xrotation
				JOINT RightFoot
				{
					OFFSET -2.57974 -7.08778 0.00000
					CHANNELS 3 Zrotation Yrotation Xrotation
					JOINT RightToeBase
					{
						OFFSET -0.26704 -0.73369 2.20815
						CHANNELS 3 Zrotation Yrotation Xrotation
						End Site
						{
							OFFSET -0.00000 -0.00000 1.16246
						}
					}
				}
			}
		}
	}
	JOINT LowerBack
	{
		OFFSET 0 0 0
		CHANNELS 3 Zrotation Yrotation Xrotation
		JOINT Spine
		{
			OFFSET -0.04690 2.05196 -0.07017
			CHANNELS 3 Zrotation Yrotation Xrotation
			JOINT Spine1
			{
				OFFSET 0.04085 2.05260 0.00800
				CHANNELS 3 Zrotation Yrotation Xrotation
				JOINT Neck
				{
					OFFSET 0 0 0
					CHANNELS 3 Zrotation Yrotation Xrotation
					JOINT Neck1
					{
						OFFSET -0.03582 1.80995 0.19301
						CHANNELS 3 Zrotation Yrotation Xrotation
						JOINT Head
						{
							OFFSET 0.00952 1.80195 -0.36389
							CHANNELS 3 Zrotation Yrotation Xrotation
							End Site
							{
								OFFSET 0.00392 1.85062 -0.14494
							}
						}
					}
				}
				JOINT LeftShoulder
				{
					OFFSET 0 0 0
					CHANNELS 3 Zrotation Yrotation Xrotation
					JOINT LeftArm
					{
						OFFSET 3.55224 1.39726 -0.13667
						CHANNELS 3 Zrotation Yrotation Xrotation
						JOINT LeftForeArm
						{
							OFFSET 5.14507 -0.00000 -0.00000
							CHANNELS 3 Zrotation Yrotation Xrotation
							JOINT LeftHand
							{
								OFFSET 3.50646 -0.00000 0.00000
								CHANNELS 3 Zrotation Yrotation Xrotation
								JOINT LeftFingerBase
								{
									OFFSET 0 0 0
									CHANNELS 3 Zrotation Yrotation Xrotation
									JOINT LeftHandIndex1
									{
										OFFSET 0.62997 -0.00000 0.00000
										CHANNELS 3 Zrotation Yrotation Xrotation
										End Site
										{
											OFFSET 0.50790 -0.00000 0.00000
										}
									}
								}
								JOINT LThumb
								{
									OFFSET 0 0 0
									CHANNELS 3 Zrotation Yrotation Xrotation
									End Site
									{
										OFFSET 0.51565 -0.00000 0.51565
									}
								}
							}
						}
					}
				}
				JOINT RightShoulder
				{
					OFFSET 0 0 0
					CHANNELS 3 Zrotation Yrotation Xrotation
					JOINT RightArm
					{
						OFFSET -3.06467 1.61290 -0.28813
						CHANNELS 3 Zrotation Yrotation Xrotation
						JOINT RightForeArm
						{
							OFFSET -5.23200 -0.00000 -0.00000
							CHANNELS 3 Zrotation Yrotation Xrotation
							JOINT RightHand
							{
								OFFSET -3.65641 -0.00000 0.00000
								CHANNELS 3 Zrotation Yrotation Xrotation
								JOINT RightFingerBase
								{
									OFFSET 0 0 0
									CHANNELS 3 Zrotation Yrotation Xrotation
									JOINT RightHandIndex1
									{
										OFFSET -0.65681 -0.00000 0.00000
										CHANNELS 3 Zrotation Yrotation Xrotation
										End Site
										{
											OFFSET -0.52953 -0.00000 0.00000
										}
									}
								}
								JOINT RThumb
								{
									OFFSET 0 0 0
									CHANNELS 3 Zrotation Yrotation Xrotation
									End Site
									{
										OFFSET -0.53762 -0.00000 0.53762
									}
								}
							}
						}
					}
				}
			}
		}
	}
}
MOTION
Frames: 9
Frame Time: 0.0416667
0.00 0.00 0.00 170.4170 13.4799 -115.1820 0.0000 0.0000 0.0000 1.5670 -12.0649 -95.3099 16.8382 19.7586 80.7196 3.9755 -13.6907 -36.2119 2.4621 -9.7687 -28.2309 0.0000 0.0000 0.0000 23.5955 2.1540 -56.5272 -23.1350 -19.7627 99.2010 -0.1553 2.0639 -7.0125 -3.8232 11.9213 -35.4541 -3.2872 -1.1128 46.5874 1.3981 0.4724 11.4439 2.8286 1.1092 -8.4231 -3.7936 -8.4715 2.0243 6.6670 -9.7215 -32.2454 3.5892 -3.3763 -9.9842 0.0000 -0.0000 0.0000 86.8323 -50.1979 -121.4617 15.9739 -25.4852 -3.6347 -0.0000 -0.0000 7.1031 38.7614 -1.5221 -1.2218 -7.1250 0.0000 -0.0000 9.3910 27.9841 -3.9352 0.0000 -0.0000 0.0000 27.3706 68.3048 -15.5629 -20.8169 31.6140 -5.9537 0.0000 0.0000 3.5815 -76.5360 -15.8785 48.8122 7.1250 -0.0000 -0.0000 -77.9075 -61.7109 44.7956
0.00 0.00 0.00 180.8380 19.8469 -109.8550 0.0000 0.0000 0.0000 4.9553 -8.6287 -75.3162 12.2053 18.4761 66.6382 2.6081 -8.6100 -29.1089 3.7453 -11.8135 -35.0755 0.0000 0.0000 0.0000 11.1074 0.3155 -85.4808 -28.0592 -18.3655 114.1989 -0.0465 -7.2644 -11.3533 -1.6216 8.0289 -22.8020 -5.5589 2.5573 43.6091 1.9500 3.7345 12.3039 3.2915 2.3669 -6.9575 -5.2234 -6.9497 0.4234 5.6088 -7.5738 -34.6809 3.2948 -1.7892 -10.7514 0.0000 0.0000 0.0000 80.4916 -59.8838 -117.7324 13.0160 -21.3107 -2.4591 -0.0000 -0.0000 16.2110 59.2055 6.3565 10.5237 -7.1250 0.0000 -0.0000 28.4208 40.3984 -3.5590 0.0000 0.0000 0.0000 42.5754 73.0927 14.4899 -13.7726 22.4088 -2.7408 0.0000 0.0000 3.3881 -64.7975 -21.3757 37.7568 7.1250 -0.0000 -0.0000 -54.0174 -64.3576 29.1986
0.00 0.00 0.00 183.8150 20.6508 -111.5100 0.0000 0.0000 0.0000 5.6379 -9.8434 -61.6820 9.2870 16.9889 57.0775 1.1698 -7.0879 -19.3187 3.4245 -11.3525 -33.4781 0.0000 0.0000 0.0000 13.7095 -0.9939 -94.7689 -26.2793 -19.0271 108.6504 0.2012 -11.1506 -12.4371 -1.6586 8.1155 -23.0656 -5.0712 2.6020 46.2418 2.0686 4.1506 12.9705 2.9245 2.5880 -6.9066 -3.8767 -6.2690 -0.2368 4.9266 -6.6641 -33.7922 2.7236 -1.6122 -10.4306 -0.0000 -0.0000 0.0000 64.2769 -65.4049 -99.2413 13.7117 -22.3210 -2.7176 -0.0000 -0.0000 10.6417 60.3484 1.6046 2.8161 -7.1250 0.0000 -0.0000 26.6446 32.2274 -9.2262 -0.0000 -0.0000 0.0000 46.9829 72.7363 33.1908 -15.0538 24.2210 -3.2480 0.0000 -0.0000 -0.2660 -43.4942 -27.4251 23.6050 7.1250 -0.0000 -0.0000 -17.9076 -64.7046 8.6700
0.00 0.00 0.00 186.9370 21.0420 -113.1240 0.0000 0.0000 0.0000 6.3059 -11.7331 -48.0158 6.6523 15.0320 47.5467 0.0707 -1.0992 -4.7565 2.3816 -9.6194 -27.7528 0.0000 0.0000 0.0000 19.1600 0.5129 -101.0668 -22.3000 -19.8727 96.7385 0.0741 -10.7322 -14.0962 -2.8144 10.3884 -30.2440 -5.4459 2.6348 50.0956 2.2527 3.8922 12.0265 3.2235 2.4889 -7.3653 -2.7773 -5.4395 -1.0824 4.5845 -5.5147 -31.9329 2.2877 -1.4085 -9.6777 0.0000 -0.0000 0.0000 41.3829 -67.0384 -76.4103 11.2277 -18.6365 -1.8480 -0.0000 -0.0000 15.5661 60.9184 4.0843 7.2977 -7.1250 0.0000 -0.0000 28.5337 36.7348 -6.4656 0.0000 -0.0000 0.0000 51.3099 73.0365 52.1210 -19.1789 29.6404 -5.1190 0.0000 -0.0000 -5.4367 -1.5270 -26.4267 0.6797 7.1250 -0.0000 -0.0000 29.5367 -53.8573 -6.8962
0.00 0.00 0.00 190.3750 22.1530 -113.4490 0.0000 0.0000 0.0000 6.0465 -14.6878 -36.2950 5.0698 13.4620 41.1235 0.2533 6.3255 9.3575 0.5215 -4.6282 -12.8512 0.0000 0.0000 0.0000 24.9069 4.5911 -103.9194 -16.5121 -19.7058 79.7538 -0.4254 -5.3098 -15.4160 -4.5551 12.8646 -38.8636 -7.2960 3.2437 51.3139 2.3344 3.5477 11.7627 4.2692 2.2976 -7.7769 -2.1890 -4.3874 -1.6296 4.3271 -4.0711 -30.4074 1.9767 -0.9426 -9.1018 -0.0000 -0.0000 0.0000 18.2015 -65.7317 -55.1585 8.7623 -14.7808 -1.1387 -0.0000 -0.0000 21.1014 59.7896 7.1206 12.0185 -7.1250 0.0000 -0.0000 29.4673 41.8055 -2.5739 -0.0000 -0.0000 0.0000 53.5997 74.2629 67.1516 -26.9093 38.0926 -9.4431 0.0000 -0.0000 -14.1957 40.8415 -16.2087 -13.5660 7.1250 -0.0000 -0.0000 52.5617 -38.5128 13.3335
0.00 0.00 0.00 192.1600 24.1071 -113.2840 0.0000 0.0000 0.0000 2.5470 -16.5161 -29.9505 5.2815 13.6940 42.0251 0.7815 5.1301 15.7617 0.0002 0.0865 0.2377 0.0000 0.0000 0.0000 28.2092 8.9772 -104.3244 -10.5841 -17.7255 61.4232 -0.5416 1.9617 -13.3657 -6.0686 14.4945 -45.2564 -9.1385 3.5630 50.0321 1.9918 2.9522 11.7780 5.0397 1.9977 -7.4745 -1.3937 -3.5770 -1.9812 3.9075 -2.9906 -29.3514 1.6146 -0.5761 -8.7269 -0.0000 -0.0000 0.0000 -0.6426 -64.5521 -38.0040 7.3361 -12.4711 -0.8026 -0.0000 -0.0000 22.3225 55.3692 10.3537 14.5864 -7.1250 0.0000 -0.0000 26.9159 45.8888 0.6368 -0.0000 -0.0000 0.0000 50.8802 76.0920 72.3016 -37.8470 46.7413 -16.8541 0.0000 -0.0000 -19.0706 54.7565 -9.6245 -13.3128 7.1250 -0.0000 -0.0000 46.9238 -22.8804 42.9031
0.00 0.00 0.00 190.4360 26.2170 -116.2150 0.0000 0.0000 0.0000 -5.8016 -14.8647 -27.1768 7.9409 16.0756 52.3494 0.3329 -7.3230 15.9675 0.0002 0.0894 0.2455 0.0000 0.0000 0.0000 24.2450 11.1140 -100.8098 -6.3274 -14.7383 46.2819 -0.1556 3.6556 -7.0796 -6.1095 14.5336 -45.4195 -9.4764 2.4402 47.9624 1.1770 1.6119 12.0469 4.9485 1.4380 -6.6718 0.9734 -3.0989 -1.4831 2.3626 -2.5888 -28.2395 0.6645 -0.6031 -8.5121 -0.0000 0.0000 0.0000 -24.4164 -62.3294 -7.8620 7.1559 -12.1755 -0.7642 -0.0000 -0.0000 16.3618 37.9560 16.3656 12.3960 -7.1250 0.0000 -0.0000 10.2355 50.1287 1.3060 -0.0000 0.0000 0.0000 44.2259 78.8574 67.0234 -46.9735 51.6995 -23.7776 0.0000 -0.0000 -11.4406 30.0310 -4.2277 -2.4402 7.1250 -0.0000 -0.0000 41.4406 -30.6233 19.6452
0.00 0.00 0.00 188.4490 25.3403 -120.9480 0.0000 0.0000 0.0000 -10.1104 -13.8190 -26.0321 11.6697 18.2475 64.9379 -0.2667 -13.6123 15.7598 0.0002 -0.0932 -0.2560 0.0000 0.0000 0.0000 16.7015 10.2108 -95.9861 -7.0736 -15.3935 49.1520 -0.0692 -3.4125 -7.3868 -4.8794 13.2467 -40.2990 -7.6891 1.0668 48.4875 1.1914 0.9055 11.8792 4.3994 1.2338 -6.9428 3.4323 -3.0463 -0.6913 0.6273 -2.7512 -27.7328 -0.3187 -0.8313 -8.5566 0.0000 -0.0000 0.0000 -40.1197 -58.5328 18.9179 8.1109 -13.7324 -0.9783 -0.0000 -0.0000 5.3972 11.4586 14.3679 2.8795 -7.1250 0.0000 -0.0000 -14.6992 44.1200 0.3266 0.0000 -0.0000 0.0000 44.1046 80.4486 61.8919 -43.1333 49.8205 -20.8025 0.0000 -0.0000 -3.5565 7.4020 -1.5121 -0.1964 7.1250 -0.0000 -0.0000 26.3361 -30.6778 10.2050
0.00 0.00 0.00 188.6230 22.0443 -124.4260 0.0000 0.0000 0.0000 -9.9388 -12.9227 -28.1984 16.9117 19.7698 80.9371 -0.5902 -14.9773 12.5955 0.0004 -0.1208 -0.3320 0.0000 0.0000 0.0000 14.4669 9.7332 -89.6899 -8.9078 -16.7480 55.7709 0.0179 -8.5500 -11.8353 -4.1224 12.3216 -36.8792 -4.6406 -0.2196 49.3237 1.9899 0.8752 11.1452 3.8158 1.3012 -8.0113 5.5178 -2.9996 -0.6171 -0.8187 -2.7755 -27.7955 -1.1672 -0.9053 -8.6604 0.0000 -0.0000 0.0000 -53.3355 -52.4058 41.5670 10.0735 -16.8544 -1.4962 -0.0000 0.0000 -1.8690 -16.0135 9.0252 -2.5778 -7.1250 0.0000 -0.0000 -34.9959 36.6227 8.5634 0.0000 -0.0000 0.0000 50.7757 80.9401 58.9369 -36.3043 45.7213 -15.7399 0.0000 0.0000 2.6858 -3.8184 -1.0259 0.0685 7.1250 -0.0000 -0.0000 17.8844 -30.6948 6.5361
